<?xml version="1.0" encoding="UTF-8"?>
<svg width="100px" height="100px" viewBox="0 0 100 100" version="1.1" xmlns="http://www.w3.org/2000/svg" xmlns:xlink="http://www.w3.org/1999/xlink">
    <title>interpreter-symbol</title>
    <g id="Page-1" stroke="none" stroke-width="1" fill="none" fill-rule="evenodd">
        <g id="interpreter-symbol" fill-rule="nonzero">
            <polygon id="Path" fill="#25262B" points="0 100 100 100 100 0 0 0"></polygon>
            <g id="Group" transform="translate(5.000000, 24.000000)" fill="#FFFFFE">
                <path d="M21.7570269,11.2242738 C21.7570269,5.2160022 16.886589,0 10.8787095,0 C4.87043788,0 0,4.87024188 0,10.8785135 C0,16.886589 4.87043788,21.7570269 10.8787095,21.7570269 C15.1154494,21.7570269 18.7865067,19.3349406 20.5827355,15.7997177 L13.9556627,11.1582187 L21.7570269,11.2242424" id="Path"></path>
                <path d="M68.0152103,11.2242738 C68.0152103,5.2160022 72.8856482,0 78.8941158,0 C84.9023874,0 89.7722372,4.87024188 89.7722372,10.8785135 C89.7722372,16.886589 84.9023874,21.7570269 78.8941158,21.7570269 C74.6571798,21.7570269 70.9857305,19.3349406 69.1896978,15.7997177 L75.8173586,11.1582187 L68.0152103,11.2242424" id="Path"></path>
                <path d="M22.3450547,25.9222235 C19.956878,22.4628562 15.6221334,20.1885609 11.0353209,20.1885609 C6.43792387,20.1885609 2.38602062,22.4732447 0,25.9459406 L0,51.1586107 L22.3411345,51.1586107 L22.3456339,25.9224195" id="Path"></path>
                <path d="M56.0587704,25.9222235 C53.6704692,22.4628562 49.3363127,20.1885609 44.7489121,20.1885609 C40.1519072,20.1885609 36.0998079,22.4732447 33.7135913,25.9459406 L33.7135913,51.1586107 L56.0547258,51.1586107 L56.0587704,25.9224195" id="Path"></path>
                <path d="M89.576228,25.9222235 C87.1884433,22.4628562 82.8535027,20.1885609 78.2666902,20.1885609 C73.6694892,20.1885609 69.617782,22.4732447 67.2311733,25.9459406 L67.2311733,51.1586107 L89.5723078,51.1586107 L89.5768025,25.9224195" id="Path"></path>
                <path d="M44.9802031,15.8281391 L51.2750402,11.2513231 L38.685758,11.2513231 L44.9802031,15.8281391 L44.9802031,15.8281391 Z M55.6660394,10.8787095 C55.6660394,16.7785879 50.8828257,21.5610177 44.9837312,21.5610177 C39.0838528,21.5610177 34.301031,16.7783919 34.301031,10.8787095 C34.301031,4.978831 39.0836567,0.196009252 44.9837312,0.196009252 C50.8830217,0.196009252 55.6660394,4.978831 55.6660394,10.8787095 Z" id="Shape"></path>
                <polyline id="Path" points="33.517582 12.2997765 31.3124779 13.9166569 23.1290917 13.9166569 23.1290917 10.5844996 31.3124779 10.5844996 33.517582 12.2997765"></polyline>
                <polyline id="Path" points="21.3650084 16.3175742 23.5701125 14.7006939 31.7534988 14.7006939 31.7534988 18.0328512 23.5701125 18.0328512 21.3650084 16.3175742"></polyline>
                <polyline id="Path" points="67.4271826 12.2997765 65.2220785 13.9166569 57.0386922 13.9166569 57.0386922 10.5844996 65.2220785 10.5844996 67.4271826 12.2997765"></polyline>
                <polyline id="Path" points="55.4706182 16.3175742 57.6757223 14.7006939 65.8591085 14.7006939 65.8591085 18.0328512 57.6757223 18.0328512 55.4706182 16.3175742"></polyline>
            </g>
        </g>
    </g>
</svg>