<?xml version="1.0" encoding="UTF-8"?>
<svg enable-background="new 0 0 566.93 230.09" version="1.1" viewBox="0 0 566.93 230.09" xml:space="preserve" xmlns="http://www.w3.org/2000/svg">
<style type="text/css">
	.st0{fill:#0A215C;}
</style>
<path class="st0" d="m279.79 29.48v-23.49h8.44v17.15c2-3.07 5.58-5.09 10.06-5.09 3.53 0 6.58 1.2 9.03 3.53s3.71 5.68 3.71 10.05v19.83h-8.44v-17.65c0-5.21-2.75-8.08-6.88-8.08-4.49 0-7.48 3.41-7.48 8.26v17.47h-8.44v-21.98zm-25.97 21.98h8.97v-35.77h12.62v-8.44h-34.21v8.44h12.62v35.77zm204.26 1.14c-1.62 3.41-3.71 5.15-6.34 5.15-1.26 0-2.69-0.36-4.19-1.08l-1.44 7.06c1.73 1.08 3.83 1.62 6.28 1.62 6.46 0 10.65-3.95 13.82-12.27l13.1-34.22h-9.21l-7.42 21.24-8.44-21.24h-9.75l14.24 32.25-0.65 1.49zm26.68-5.23c-3.05-3.29-4.55-7.42-4.55-12.32 0-4.91 1.56-8.98 4.61-12.15 3.05-3.23 6.94-4.85 11.55-4.85 3.87 0 7.2 1.41 9.99 4.28v-3.47h8.44v32.61h-8.44v-3.3c-2.74 2.76-6.07 4.11-9.99 4.11-4.67-0.01-8.56-1.62-11.61-4.91zm3.89-12.24c0 2.63 0.84 4.85 2.57 6.7 1.74 1.86 3.89 2.75 6.52 2.75s4.79-0.9 6.52-2.75 2.63-4.07 2.63-6.7c0-2.57-0.9-4.79-2.63-6.64-1.74-1.85-3.89-2.75-6.52-2.75-2.69 0-4.85 0.9-6.58 2.75-1.67 1.85-2.51 4.07-2.51 6.64zm-167.49 12.17c-3.06-3.3-4.56-7.37-4.56-12.11 0-4.97 1.56-9.05 4.73-12.29 3.18-3.24 7.25-4.85 12.29-4.85 4.73 0 8.69 1.5 11.75 4.44s4.61 6.89 4.61 11.99c0 1.14-0.12 2.4-0.3 3.72h-24.51c1.2 4.61 4.38 6.95 9.53 6.95 3.54 0 7.73-1.38 10.55-3.3l3.36 5.93c-4.14 3-8.87 4.5-14.27 4.5-5.75-0.01-10.12-1.69-13.18-4.98zm4.02-15.41h16.6c-0.78-4.26-3.84-6.83-8.15-6.83-4.26 0-7.44 2.58-8.45 6.83zm88.11 15.43c-3.29-3.28-4.91-7.33-4.91-12.16 0-4.77 1.62-8.82 4.91-12.1 3.29-3.34 7.48-5.01 12.56-5.01 5.09 0 9.27 1.67 12.56 5.01 3.29 3.28 4.91 7.33 4.91 12.1 0 4.83-1.62 8.88-4.91 12.16s-7.48 4.95-12.56 4.95-9.27-1.67-12.56-4.95zm3.53-12.19c0 2.61 0.84 4.85 2.57 6.73 1.74 1.82 3.89 2.73 6.46 2.73s4.67-0.91 6.4-2.73c1.73-1.88 2.63-4.12 2.63-6.73s-0.9-4.85-2.63-6.67c-1.74-1.82-3.83-2.73-6.4-2.73s-4.73 0.91-6.46 2.73c-1.74 1.82-2.57 4.06-2.57 6.67zm-36.29 16.33h-8.97v-44.21h17.05c4.91 0 8.68 1.38 11.25 4.07s3.89 5.98 3.89 9.93c0 5.74-2.99 10.83-8.97 12.98l10.71 17.23h-10.35l-9.33-16.09h-5.26v16.09zm0-24.05h7.24c4.61 0 6.88-2.58 6.88-5.92 0-3.28-2.27-5.8-6.1-5.8h-8.02v11.72zm142.1 24.05h8.44v-45.47h-8.44v45.47zm-123.09 71.63c-1.97 1.91-1.97 5.39 0 7.36s5.44 1.97 7.42 0c1.97-1.97 1.97-5.44 0-7.36-1.98-1.98-5.45-1.98-7.42 0zm-61.04-13.26v-45.47h8.44v45.47h-8.44zm-36.08-28.56c3.18-3.24 7.25-4.85 12.29-4.85 4.73 0 8.69 1.5 11.75 4.44s4.62 6.89 4.62 11.99c0 1.14-0.12 2.4-0.3 3.72h-24.51c1.2 4.62 4.38 6.95 9.53 6.95 3.54 0 7.73-1.38 10.55-3.3l3.36 5.93c-4.14 3-8.87 4.5-14.27 4.5-5.75 0-10.13-1.68-13.19-4.97-3.06-3.3-4.56-7.37-4.56-12.11 0-4.99 1.56-9.06 4.73-12.3zm3.84 8.99h16.6c-0.78-4.26-3.84-6.83-8.15-6.83-4.26 0-7.43 2.58-8.45 6.83zm136.46-13.04h-8.44v18.86c0 9.16 5.68 14.55 14.96 14.55 9.33 0 14.96-5.39 14.96-14.55v-18.86h-8.44v18.9c0 4.13-2.45 6.83-6.52 6.83s-6.52-2.7-6.52-6.83v-18.9zm95.38 28.44c-3.06-3.3-4.56-7.37-4.56-12.11 0-4.97 1.56-9.05 4.73-12.29 3.18-3.24 7.25-4.85 12.29-4.85 4.73 0 8.69 1.5 11.75 4.44s4.61 6.89 4.61 11.99c0 1.14-0.12 2.4-0.3 3.72h-24.51c1.2 4.61 4.38 6.95 9.53 6.95 3.54 0 7.73-1.38 10.55-3.3l3.36 5.93c-4.14 3-8.87 4.5-14.27 4.5-5.75 0-10.12-1.68-13.18-4.98zm4.01-15.4h16.6c-0.78-4.26-3.84-6.83-8.15-6.83-4.25 0-7.43 2.58-8.45 6.83zm-118.33 15.43c-3.29 3.28-7.48 4.95-12.56 4.95-5.09 0-9.27-1.67-12.56-4.95s-4.91-7.33-4.91-12.16c0-4.77 1.62-8.82 4.91-12.1 3.29-3.34 7.48-5.01 12.56-5.01 5.09 0 9.27 1.67 12.56 5.01 3.29 3.28 4.91 7.33 4.91 12.1 0 4.83-1.62 8.88-4.91 12.16zm-3.53-12.19c0-2.61-0.9-4.85-2.63-6.67-1.74-1.82-3.83-2.73-6.4-2.73s-4.73 0.91-6.46 2.73-2.57 4.06-2.57 6.67 0.84 4.85 2.57 6.73c1.74 1.82 3.89 2.73 6.46 2.73s4.67-0.91 6.4-2.73c1.74-1.89 2.63-4.13 2.63-6.73zm60.11-11.99v-4.28h-8.44v32.61h8.44v-15.86c0-6.76 3.17-9.87 7.96-9.87 1.2 0 2.51 0.24 3.89 0.66l0.72-7.63c-1.32-0.48-2.63-0.72-3.95-0.72-3.78-0.01-6.78 1.47-8.62 5.09zm35.34-5.1c-4.48 0-8.06 2.02-10.06 5.09v-4.28h-8.44v10.63l0.01 21.98h8.44v-17.47c0-4.85 2.99-8.26 7.48-8.26 4.13 0 6.88 2.87 6.88 8.08v17.65h8.44v-19.83c0-4.37-1.26-7.72-3.71-10.05-2.46-2.34-5.51-3.54-9.04-3.54zm-223.72 33.42v-44.21h-6.1l-17.35 25.07-17.35-25.07h-6.1v44.22h8.97v-25.08l12.86 18.49h3.23l12.86-18.49v25.07h8.98zm71.2 0h-8.44v-45.47h8.44v16.34c2.79-2.87 6.12-4.28 9.99-4.28 4.61 0 8.5 1.62 11.55 4.85 3.05 3.17 4.61 7.24 4.61 12.15s-1.5 9.03-4.55 12.33c-3.05 3.29-6.94 4.91-11.61 4.91-3.93 0-7.26-1.35-9.99-4.11v3.28zm-0.53-16.33c0 2.63 0.9 4.85 2.63 6.7 1.74 1.86 3.89 2.75 6.52 2.75s4.79-0.9 6.52-2.75 2.57-4.07 2.57-6.7c0-2.57-0.84-4.79-2.51-6.64-1.74-1.85-3.89-2.75-6.58-2.75-2.63 0-4.79 0.9-6.52 2.75-1.74 1.85-2.63 4.06-2.63 6.64zm120.08 29.23h8.44v45.47h-8.44v-45.47zm-16.38 12.86h8.44v32.61h-8.44v-3.3c-2.74 2.76-6.07 4.11-9.99 4.11-4.67 0-8.56-1.62-11.61-4.91s-4.55-7.42-4.55-12.33 1.56-8.97 4.61-12.15c3.05-3.23 6.94-4.85 11.55-4.85 3.87 0 7.2 1.41 9.99 4.28v-3.46zm0.54 16.28c0-2.57-0.9-4.79-2.63-6.64-1.74-1.85-3.89-2.75-6.52-2.75-2.69 0-4.85 0.9-6.58 2.75-1.67 1.85-2.51 4.07-2.51 6.64 0 2.63 0.84 4.85 2.57 6.7 1.74 1.86 3.89 2.75 6.52 2.75s4.79-0.9 6.52-2.75c1.73-1.86 2.63-4.07 2.63-6.7zm-36.49 9.45c-3.05 0-4.61-1.91-4.61-5.74v-12.92h10.77v-7.06h-10.77v-11.55h-8.44v11.55h-5.33v7.06h5.33v13.46c0 8.44 3.89 12.86 11.37 12.86 3.77 0 6.94-0.9 9.63-2.69l-2.51-6.64c-1.97 1.13-3.82 1.67-5.44 1.67zm-112.45-21.53c3.29 3.28 4.91 7.33 4.91 12.1 0 4.83-1.62 8.88-4.91 12.16s-7.48 4.95-12.56 4.95c-5.09 0-9.27-1.67-12.56-4.95s-4.91-7.33-4.91-12.16c0-4.77 1.62-8.82 4.91-12.1 3.29-3.34 7.48-5.01 12.56-5.01s9.27 1.67 12.56 5.01zm-3.53 12.08c0-2.61-0.9-4.85-2.63-6.67-1.74-1.82-3.83-2.73-6.4-2.73s-4.73 0.91-6.46 2.73-2.57 4.06-2.57 6.67 0.84 4.85 2.57 6.73c1.74 1.82 3.89 2.73 6.46 2.73s4.67-0.91 6.4-2.73c1.73-1.89 2.63-4.13 2.63-6.73zm32.13-1.43c-0.9-0.47-3.53-1.54-7.84-3.14-1.91-0.65-2.87-1.6-2.87-2.97 0-1.48 1.5-2.54 3.71-2.54 2.69 0 5.2 0.88 7.48 3.01l4.19-5.4c-2.99-3.08-6.82-4.63-11.43-4.63-3.65 0-6.64 0.89-8.85 2.73s-3.35 4.15-3.35 7c0 3.8 1.85 6.58 5.62 8.36 0.72 0.36 2.09 0.95 4.19 1.72 2.09 0.77 3.35 1.25 3.89 1.48 1.56 0.71 2.33 1.66 2.33 2.79 0 1.84-1.91 3.01-4.49 3.01-3.29 0-6.7-1.59-9.03-4.37l-4.49 5.28c3.29 4.15 7.78 6.23 13.46 6.23 3.89 0 7.06-0.95 9.39-2.91 2.39-1.96 3.59-4.45 3.59-7.47 0-3.55-1.85-6.28-5.5-8.18zm-74.07-8.57h-18.43v-17.89h-8.97v44.22h8.97v-17.89h18.43v17.89h8.98v-44.22h-8.98v17.89zm126.55 26.33h8.44v-32.61h-8.44v32.61zm-10.94-28.57c3.05 3.17 4.61 7.24 4.61 12.15s-1.5 9.03-4.55 12.33c-3.05 3.29-6.94 4.91-11.61 4.91-3.93 0-7.26-1.35-9.99-4.11v16.17h-8.44v-45.47h8.44v3.47c2.79-2.87 6.12-4.28 9.99-4.28 4.61-0.02 8.5 1.6 11.55 4.83zm-3.83 12.24c0-2.57-0.84-4.79-2.51-6.64-1.74-1.85-3.89-2.75-6.58-2.75-2.63 0-4.79 0.9-6.52 2.75s-2.63 4.07-2.63 6.64c0 2.63 0.9 4.85 2.63 6.7 1.74 1.86 3.89 2.75 6.52 2.75s4.79-0.9 6.52-2.75c1.73-1.86 2.57-4.07 2.57-6.7zm-248.54 62.66c0.09 0.33 0.05 0.62-0.12 0.86s-0.46 0.42-0.88 0.53l-1.13 0.31-0.57-2.09 1.13-0.31c0.42-0.11 0.76-0.11 1.03 0.01s0.45 0.35 0.54 0.69zm67.79-46.33 2.3-12.25-71.56 40.79 19.2-0.01c-11.1 6.88-28.34 11.29-47.72 11.29s-36.62-4.42-47.72-11.29l19.2 0.01-71.55-40.8 2.3 12.25-7.96 6.41 55.6 31.69-2.3 9.13c10.5 8.77 30.05 14.67 52.44 14.67s41.93-5.9 52.44-14.67l-2.3-9.13 55.6-31.69-7.97-6.4zm-185.56 9.28 1.84-3.25-3.08 1.78-0.55-0.32-0.07-3.49-1.81 3.17-1.15-0.66 3.08-5.41 1.01 0.58 0.07 4.49 3.87-2.25 1.01 0.57-3.07 5.42-1.15-0.63zm3.51 2 3.08-5.41 1.23 0.7-3.08 5.41-1.23-0.7zm8.06-1.37c-0.34-0.2-0.63-0.28-0.86-0.26s-0.4 0.12-0.5 0.31c-0.11 0.19-0.09 0.38 0.05 0.58s0.38 0.45 0.71 0.76c0.35 0.33 0.62 0.61 0.82 0.86 0.2 0.24 0.33 0.52 0.4 0.84 0.06 0.32-0.01 0.65-0.21 1.01-0.18 0.31-0.42 0.54-0.74 0.7-0.31 0.16-0.68 0.22-1.11 0.17-0.42-0.04-0.88-0.2-1.36-0.48-0.42-0.24-0.79-0.53-1.12-0.87-0.32-0.34-0.55-0.67-0.68-0.99l0.95-0.71c0.13 0.3 0.32 0.59 0.58 0.87 0.25 0.28 0.54 0.51 0.85 0.69 0.35 0.2 0.64 0.29 0.86 0.28 0.23-0.01 0.39-0.1 0.49-0.28 0.07-0.13 0.09-0.26 0.03-0.41-0.05-0.14-0.14-0.28-0.26-0.42s-0.3-0.31-0.53-0.53c-0.35-0.33-0.62-0.61-0.82-0.86-0.2-0.24-0.33-0.53-0.39-0.85s0.01-0.66 0.22-1.02c0.18-0.31 0.42-0.55 0.74-0.71 0.31-0.16 0.68-0.22 1.1-0.18s0.87 0.2 1.36 0.48c0.34 0.19 0.65 0.42 0.92 0.69 0.28 0.27 0.49 0.55 0.65 0.84l-0.92 0.73c-0.33-0.54-0.74-0.96-1.23-1.24zm6.41 6.63-2.46-1.4-0.71 1.25 2.88 1.64-0.57 1-4.1-2.34 3.08-5.41 4.01 2.28-0.57 1-2.79-1.59-0.67 1.17 2.46 1.4-0.56 1zm6.9 3.73c-0.36 0.18-0.75 0.25-1.19 0.21l0.2 2.42-1.32-0.75-0.16-2.09-0.06-0.03-1.07-0.61-0.86 1.51-1.23-0.7 3.08-5.41 2.29 1.31c0.47 0.27 0.83 0.58 1.09 0.94 0.25 0.36 0.39 0.74 0.41 1.14s-0.09 0.8-0.31 1.2c-0.22 0.38-0.52 0.68-0.87 0.86zm0.98 3.75 3.08-5.41 1.23 0.7-3.08 5.41-1.23-0.7zm9.28-0.11c-0.33-0.56-0.74-0.98-1.23-1.26-0.34-0.2-0.63-0.28-0.86-0.26s-0.4 0.12-0.5 0.31c-0.11 0.19-0.09 0.38 0.05 0.58s0.38 0.45 0.71 0.76c0.35 0.33 0.62 0.61 0.82 0.86 0.2 0.24 0.33 0.52 0.4 0.84 0.06 0.32-0.01 0.65-0.21 1.01-0.18 0.31-0.42 0.54-0.74 0.7-0.31 0.16-0.68 0.22-1.11 0.17-0.42-0.04-0.88-0.2-1.36-0.48-0.42-0.24-0.79-0.53-1.12-0.87-0.32-0.34-0.55-0.67-0.68-0.99l0.95-0.71c0.13 0.3 0.32 0.59 0.58 0.87 0.25 0.28 0.54 0.51 0.85 0.69 0.35 0.2 0.64 0.29 0.86 0.28 0.23-0.01 0.39-0.1 0.49-0.28 0.07-0.13 0.09-0.26 0.03-0.41-0.05-0.14-0.14-0.28-0.26-0.42s-0.3-0.31-0.53-0.53c-0.35-0.33-0.62-0.61-0.82-0.86-0.2-0.24-0.33-0.53-0.39-0.85s0.01-0.66 0.22-1.02c0.18-0.31 0.42-0.55 0.74-0.71 0.31-0.16 0.68-0.22 1.1-0.18s0.87 0.2 1.36 0.48c0.34 0.19 0.65 0.42 0.92 0.69 0.28 0.27 0.49 0.55 0.65 0.84l-0.92 0.75zm18.23 20.22c-0.42-0.51-0.89-0.87-1.43-1.08-0.38-0.15-0.68-0.19-0.9-0.14-0.23 0.05-0.38 0.18-0.46 0.38s-0.03 0.39 0.14 0.56c0.17 0.18 0.45 0.4 0.84 0.66 0.4 0.28 0.72 0.52 0.96 0.74s0.42 0.47 0.53 0.78 0.09 0.65-0.06 1.04c-0.13 0.33-0.34 0.6-0.63 0.8s-0.65 0.31-1.09 0.33c-0.43 0.02-0.91-0.08-1.44-0.29-0.46-0.18-0.88-0.41-1.26-0.7s-0.66-0.59-0.84-0.89l0.85-0.83c0.18 0.28 0.42 0.54 0.72 0.78s0.62 0.43 0.96 0.57c0.38 0.15 0.68 0.2 0.91 0.16s0.38-0.16 0.45-0.35c0.05-0.14 0.04-0.27-0.03-0.41-0.07-0.13-0.18-0.26-0.33-0.38s-0.35-0.27-0.61-0.45c-0.4-0.28-0.72-0.52-0.96-0.74-0.24-0.21-0.42-0.48-0.53-0.79s-0.09-0.66 0.06-1.05c0.13-0.34 0.34-0.61 0.63-0.81s0.65-0.31 1.08-0.33 0.91 0.08 1.44 0.28c0.37 0.14 0.71 0.33 1.03 0.56s0.58 0.47 0.78 0.74l-0.81 0.86zm8.07 4.46c-0.24 0.88-0.67 1.49-1.28 1.83s-1.34 0.4-2.2 0.16-1.46-0.66-1.81-1.26c-0.35-0.61-0.4-1.35-0.16-2.23l0.92-3.36 1.39 0.38-0.91 3.31c-0.3 1.07 0 1.73 0.89 1.98 0.43 0.12 0.8 0.08 1.1-0.12s0.53-0.57 0.68-1.13l0.91-3.31 1.37 0.38-0.9 3.37zm4.39 1.59c0.11 0.33 0.3 0.6 0.57 0.82s0.59 0.37 0.97 0.43c0.61 0.11 1.17-0.04 1.67-0.45l0.76 1.01c-0.36 0.3-0.77 0.51-1.23 0.62-0.47 0.11-0.96 0.11-1.49 0.02-0.62-0.11-1.16-0.35-1.62-0.71s-0.78-0.81-0.99-1.34c-0.2-0.53-0.25-1.1-0.14-1.71s0.35-1.12 0.73-1.55 0.84-0.73 1.39-0.91 1.15-0.21 1.78-0.1c0.53 0.1 0.99 0.28 1.39 0.54s0.71 0.6 0.93 1l-1.06 0.67c-0.33-0.55-0.8-0.89-1.41-1-0.38-0.07-0.73-0.05-1.06 0.07-0.33 0.11-0.6 0.3-0.82 0.57s-0.36 0.59-0.43 0.97c-0.07 0.37-0.05 0.72 0.06 1.05zm8.21 1.25c0.14 0.32 0.35 0.58 0.63 0.78s0.62 0.32 1 0.36c0.62 0.06 1.16-0.13 1.63-0.57l0.83 0.94c-0.33 0.33-0.73 0.57-1.18 0.71-0.46 0.14-0.95 0.19-1.49 0.13-0.63-0.07-1.19-0.26-1.67-0.59s-0.84-0.75-1.08-1.27-0.33-1.08-0.27-1.7c0.06-0.61 0.27-1.15 0.61-1.6 0.34-0.46 0.78-0.79 1.32-1.02 0.54-0.22 1.13-0.3 1.76-0.23 0.54 0.06 1.01 0.2 1.43 0.43 0.41 0.23 0.75 0.54 1.01 0.93l-1.01 0.75c-0.37-0.53-0.86-0.82-1.48-0.89-0.38-0.04-0.73 0.01-1.05 0.14s-0.58 0.35-0.78 0.63-0.32 0.62-0.36 1c-0.04 0.4 0.01 0.75 0.15 1.07zm12.62 0.14c-0.03 0.91-0.3 1.61-0.81 2.08-0.51 0.48-1.21 0.7-2.1 0.67s-1.57-0.3-2.05-0.8c-0.48-0.51-0.7-1.22-0.67-2.13l0.11-3.48 1.44 0.05-0.11 3.43c-0.04 1.11 0.41 1.69 1.33 1.72 0.45 0.02 0.8-0.11 1.04-0.37 0.25-0.26 0.38-0.68 0.4-1.26l0.11-3.43 1.42 0.05-0.11 3.47zm7.33 2.57-1.26-1.69h-0.07l-1.25 0.05 0.07 1.73-1.44 0.05-0.23-6.22 2.69-0.1c0.55-0.02 1.03 0.05 1.45 0.22 0.41 0.17 0.73 0.42 0.97 0.75 0.23 0.33 0.36 0.72 0.37 1.19 0.02 0.46-0.08 0.87-0.29 1.21s-0.52 0.61-0.92 0.8l1.47 1.95-1.56 0.06zm8.53-0.72-1.38-1.59-0.07 0.01-1.25 0.14 0.19 1.72-1.43 0.16-0.67-6.19 2.68-0.29c0.55-0.06 1.03-0.02 1.46 0.12 0.42 0.14 0.76 0.36 1.02 0.68 0.25 0.31 0.41 0.7 0.46 1.16s-0.02 0.87-0.2 1.23-0.47 0.65-0.86 0.87l1.6 1.84-1.55 0.14zm4.59-0.63-1.13-6.12 4.63-0.85 0.21 1.14-3.22 0.59 0.25 1.33 2.84-0.52 0.2 1.1-2.84 0.52 0.26 1.42 3.33-0.61 0.21 1.14-4.74 0.86zm11.73-2.64-1.61-1.36-0.07 0.02-1.21 0.33 0.46 1.67-1.39 0.38-1.64-6.01 2.6-0.71c0.53-0.14 1.02-0.18 1.46-0.11s0.81 0.24 1.11 0.51 0.51 0.62 0.63 1.07 0.12 0.86-0.01 1.24-0.36 0.71-0.71 0.99l1.87 1.56-1.49 0.42zm4.51-1.42-2.24-5.81 4.39-1.69 0.42 1.08-3.05 1.18 0.49 1.26 2.7-1.04 0.4 1.05-2.7 1.04 0.52 1.34 3.16-1.22 0.42 1.08-4.51 1.73zm25.78-24.82c-0.33 0.49-0.8 0.9-1.4 1.24l-2.51 1.43-3.08-5.41 2.51-1.43c0.6-0.34 1.19-0.53 1.78-0.57s1.12 0.07 1.61 0.34c0.49 0.26 0.88 0.66 1.19 1.2s0.45 1.09 0.43 1.64-0.2 1.07-0.53 1.56zm4.26-1.99-3.08-5.41 1.28-0.73 3.08 5.41-1.28 0.73zm7.71-5.37c-0.03 0.36-0.18 0.71-0.45 1.06s-0.65 0.67-1.16 0.96c-0.44 0.25-0.89 0.43-1.36 0.55s-0.89 0.15-1.24 0.11l-0.1-1.19c0.33 0.04 0.69 0.01 1.08-0.07 0.38-0.08 0.74-0.22 1.06-0.4 0.36-0.21 0.6-0.41 0.71-0.62 0.11-0.2 0.12-0.39 0.02-0.57-0.07-0.13-0.19-0.21-0.34-0.23-0.15-0.03-0.32-0.02-0.51 0.02s-0.44 0.11-0.75 0.2c-0.48 0.14-0.88 0.24-1.2 0.29-0.32 0.06-0.64 0.03-0.96-0.08-0.31-0.11-0.58-0.34-0.78-0.7-0.18-0.31-0.25-0.65-0.23-1 0.03-0.35 0.17-0.7 0.44-1.05 0.26-0.35 0.65-0.67 1.15-0.95 0.35-0.2 0.72-0.36 1.1-0.46 0.38-0.11 0.75-0.16 1.09-0.15l0.15 1.18c-0.67 0.01-1.26 0.16-1.77 0.45-0.36 0.2-0.59 0.41-0.69 0.62-0.11 0.21-0.11 0.41 0 0.59 0.11 0.19 0.28 0.27 0.53 0.24 0.25-0.02 0.6-0.1 1.05-0.25 0.48-0.14 0.88-0.24 1.2-0.29s0.64-0.03 0.95 0.07 0.57 0.33 0.78 0.69c0.19 0.29 0.26 0.62 0.23 0.98zm7.06-3.25c-0.29 0.39-0.68 0.72-1.16 0.99-0.56 0.32-1.14 0.49-1.73 0.51s-1.14-0.11-1.64-0.39-0.91-0.68-1.21-1.22c-0.31-0.54-0.45-1.09-0.43-1.66s0.19-1.11 0.5-1.61c0.32-0.5 0.76-0.91 1.33-1.23 0.48-0.27 0.96-0.44 1.44-0.49 0.48-0.06 0.94 0 1.38 0.16l-0.4 1.21c-0.61-0.21-1.2-0.16-1.75 0.16-0.34 0.19-0.6 0.44-0.79 0.74-0.18 0.3-0.28 0.62-0.28 0.97s0.1 0.69 0.29 1.02 0.44 0.59 0.74 0.77 0.62 0.26 0.98 0.26c0.35-0.01 0.7-0.11 1.04-0.3 0.55-0.31 0.89-0.79 1.02-1.43l1.24 0.27c-0.08 0.45-0.27 0.88-0.57 1.27zm7.53-4.45c-0.32 0.5-0.76 0.92-1.34 1.24-0.57 0.33-1.16 0.5-1.76 0.52s-1.15-0.11-1.65-0.39-0.9-0.68-1.21-1.21c-0.3-0.53-0.44-1.08-0.43-1.66 0.02-0.57 0.19-1.11 0.51-1.62 0.32-0.5 0.77-0.92 1.34-1.25s1.16-0.5 1.75-0.52c0.6-0.02 1.15 0.11 1.65 0.39 0.51 0.27 0.91 0.68 1.21 1.21s0.44 1.08 0.42 1.66c0 0.59-0.17 1.13-0.49 1.63zm-73.62 40.63c0.04 0.34-0.05 0.62-0.25 0.83s-0.52 0.34-0.95 0.39l-1.17 0.13-0.23-2.16 1.17-0.13c0.43-0.05 0.77 0.01 1.01 0.17s0.38 0.42 0.42 0.77zm45.87-28.03c0.29 0.51 0.36 1.02 0.21 1.51-0.16 0.49-0.51 0.89-1.06 1.2l-1.17 0.66-1.91-3.35 1.17-0.66c0.55-0.31 1.08-0.41 1.58-0.3 0.49 0.11 0.89 0.42 1.18 0.94zm26.54-15.13c0.19 0.33 0.29 0.68 0.29 1.02s-0.09 0.67-0.27 0.97-0.43 0.54-0.76 0.72c-0.33 0.19-0.66 0.28-1.01 0.28s-0.67-0.08-0.97-0.26-0.54-0.43-0.74-0.77-0.29-0.68-0.29-1.02c0-0.35 0.09-0.67 0.27-0.97s0.43-0.54 0.76-0.72c0.33-0.19 0.66-0.28 1.01-0.28s0.67 0.08 0.97 0.26 0.55 0.43 0.74 0.77zm-149.85 11.5c0.1 0.27 0.06 0.56-0.11 0.86s-0.4 0.48-0.68 0.53c-0.29 0.06-0.61-0.02-0.98-0.23l-1-0.57 1.07-1.89 1 0.57c0.36 0.22 0.6 0.46 0.7 0.73zm69.18 32.36c0.01 0.34-0.09 0.61-0.31 0.81s-0.54 0.31-0.98 0.32l-1.17 0.04-0.08-2.17 1.17-0.04c0.43-0.02 0.76 0.07 1 0.24 0.24 0.19 0.36 0.45 0.37 0.8zm-106.1-217.52c4.34 6.37 7.64 14.11 7.64 23.16v54.2h82.93v-78.22c-2.31 0.54-4.85 0.86-7.62 0.86h-82.95zm59.16 47.78-0.57 11.67-9.48-6.83-9.48 6.83-0.57-11.67-11.26-3.15 8.78-7.72-4.56-10.77 11.51 2.04 5.58-10.27 5.57 10.27 11.51-2.04-4.55 10.76 8.78 7.72-11.26 3.16zm31.41 48.99v88.09l-70.48-40.25c-7.7-4.39-12.44-12.57-12.44-21.44v-26.82h82.92v0.42zm109.58-96.77c-4.34 6.37-7.64 14.11-7.64 23.16v53.81 0.39h-82.92v-78.22c2.31 0.54 4.85 0.86 7.62 0.86h82.94zm-90.56 96.37h82.92v26.82c0 8.86-4.75 17.04-12.44 21.44l-70.48 40.24v-88.5z"/>
</svg>
